<svg width="16" height="15" viewBox="0 0 16 15" fill="none" xmlns="http://www.w3.org/2000/svg">
<g clip-path="url(#clip0_391_778)">
<path d="M10.5557 9.41229C9.3787 10.3365 7.35299 10.3378 5.45675 9.46238C6.03287 7.81913 6.27881 5.37564 6.36987 4.15878V4.13068C6.40147 3.37503 6.64306 2.08242 7.06245 1.70673C7.0793 1.68628 7.10084 1.67008 7.12529 1.65946C7.14974 1.64884 7.1764 1.6441 7.20308 1.64564C7.28485 1.65053 7.2991 1.66825 7.32016 1.69573C7.56795 2.01278 7.52521 3.00484 7.39945 3.59983L8.21655 3.77087L9.03365 3.94192C9.11046 3.58211 9.45552 1.73727 8.64709 0.695124C8.48826 0.488378 8.28481 0.319029 8.05146 0.199329C7.81812 0.0796293 7.56071 0.0125704 7.29786 0.00300386C7.04992 -0.0114253 6.8016 0.024204 6.56811 0.10771C6.33462 0.191216 6.12087 0.320842 5.93995 0.488648C4.8701 1.44833 4.72267 3.58883 4.70099 4.05004C4.5678 5.80691 4.27602 7.57112 3.97 8.64992C3.00484 8.12701 2.09544 7.76354 1.28888 8.05249C0.243808 8.43001 -0.114253 9.67252 0.0300866 10.4263C0.228941 11.4648 1.23932 11.9266 2.1227 11.9266H2.15863H2.22058C2.5743 11.9266 3.54875 11.8307 4.63656 10.8961C6.56315 11.8124 8.9971 12.1514 10.8871 11.1576L10.5632 9.41534L10.5557 9.41229ZM2.2373 10.281H2.22429H2.15367C1.99261 10.281 1.6903 10.2199 1.67172 10.1221C1.6426 9.96818 1.76278 9.6377 1.85756 9.60288C2.04341 9.54729 2.53032 9.76293 3.02219 10.0213C2.60156 10.259 2.30607 10.2797 2.2373 10.281Z" fill="#C8DF93"/>
<path d="M13.9675 15H13.9309C13.0921 14.9805 12.4485 14.3433 12.4002 13.4838C12.3543 12.6793 12.8338 11.6762 13.382 10.515C14.0015 9.20893 14.8515 7.41968 14.3057 6.76665C14.2716 6.72634 14.2437 6.70557 14.2221 6.70557C14.1566 6.71042 14.0947 6.73664 14.0461 6.78009C13.7816 7.08553 13.2526 8.84485 12.8282 10.2621C12.6833 10.7434 12.5315 11.2486 12.3723 11.7648C11.8971 13.303 11.1631 14.3097 10.1899 14.7581C9.84793 14.9135 9.47667 14.9961 9.10023 15.0006C8.72378 15.0052 8.35059 14.9315 8.00493 14.7844C7.24978 14.4661 6.64765 13.6317 6.57331 12.8009C6.47357 11.6799 6.99827 10.4673 8.32768 8.74466C9.44647 7.29384 9.37151 6.57667 9.24824 6.42334C9.22532 6.3967 9.19533 6.37687 9.16163 6.36608C9.12793 6.35529 9.09185 6.35397 9.05744 6.36226C8.44601 6.6848 7.96219 7.6005 7.82776 7.92609L6.41968 7.36653C6.48968 7.19549 7.1358 5.67747 8.34441 5.04155C9.01097 4.6903 9.89312 4.86562 10.3992 5.45022C10.8688 5.99329 11.3805 7.26268 9.53196 9.65364C8.15113 11.4435 8.0452 12.234 8.08237 12.6732C8.10653 12.9463 8.36238 13.3116 8.5984 13.4111C8.74787 13.4763 8.90969 13.5093 9.0731 13.5081C9.23652 13.5068 9.3978 13.4713 9.54621 13.4038C10.1037 13.1485 10.5776 12.4325 10.9171 11.3335C11.0757 10.8216 11.2269 10.3195 11.3693 9.84179C12.0638 7.52964 12.4479 6.29873 12.9137 5.78681C13.0848 5.60663 13.2915 5.46302 13.5211 5.36488C13.7508 5.26673 13.9984 5.21615 14.2487 5.21626C14.4853 5.22309 14.7175 5.28093 14.9289 5.38573C15.1404 5.49053 15.3261 5.63973 15.4728 5.82286C16.63 7.20587 15.6332 9.30483 14.7536 11.1582C14.3478 12.0134 13.8863 12.9811 13.9123 13.4093C13.9179 13.5107 13.9452 13.5113 13.9625 13.5119H13.9656C14.0951 13.5119 14.3776 13.3048 14.4445 12.6567L15.9548 12.8082C15.8011 14.3177 14.8236 15 13.9675 15Z" fill="#F2A6C0"/>
</g>
<defs>
<clipPath id="clip0_391_778">
<rect width="16" height="15" fill="white"/>
</clipPath>
</defs>
</svg>
